<svg xmlns="http://www.w3.org/2000/svg" width="11.294" height="15.713" viewBox="0 0 11.294 15.713">
  <g id="book" transform="translate(-72)">
    <path id="Path_8565" data-name="Path 8565" d="M72.491,13.994A.491.491,0,0,1,72,13.5V2.025A2.028,2.028,0,0,1,74.025,0H82.8a.491.491,0,0,1,.491.491V11.785a.491.491,0,0,1-.982,0V.982H74.025a1.045,1.045,0,0,0-1.043,1.043V13.5A.491.491,0,0,1,72.491,13.994Z" fill="#0b4328"/>
    <path id="Path_8566" data-name="Path 8566" d="M82.8,372.419H74.21a2.21,2.21,0,1,1,0-4.419H82.8a.491.491,0,0,1,0,.982H74.21a1.228,1.228,0,1,0,0,2.455H82.8a.491.491,0,1,1,0,.982Z" transform="translate(0 -356.706)" fill="#0b4328"/>
    <path id="Path_8567" data-name="Path 8567" d="M137.084,424.982h-8.593a.491.491,0,1,1,0-.982h8.593a.491.491,0,1,1,0,.982Z" transform="translate(-54.281 -410.988)" fill="#0b4328"/>
    <path id="Path_8568" data-name="Path 8568" d="M144.491,12.276a.491.491,0,0,1-.491-.491V.491a.491.491,0,1,1,.982,0V11.785A.491.491,0,0,1,144.491,12.276Z" transform="translate(-69.79)" fill="#0b4328"/>
  </g>
</svg>
