<svg xmlns="http://www.w3.org/2000/svg" width="16.999" height="20.435" viewBox="0 0 16.999 20.435">
  <g id="agenda" transform="translate(-43.052)">
    <path id="Path_8585" data-name="Path 8585" d="M58.925,0H44.888a1.127,1.127,0,0,0-1.126,1.126V2.339h-.311a.4.4,0,0,0-.4.4V4.693a.4.4,0,0,0,.4.4h.311V6.674h-.311a.4.4,0,0,0-.4.4V9.028a.4.4,0,0,0,.4.4h.311v1.582h-.311a.4.4,0,0,0-.4.4v1.954a.4.4,0,0,0,.4.4h.311v1.582h-.311a.4.4,0,0,0-.4.4V17.7a.4.4,0,0,0,.4.4h.311v1.213a1.127,1.127,0,0,0,1.126,1.126H58.925a1.127,1.127,0,0,0,1.126-1.126V1.126A1.127,1.127,0,0,0,58.925,0ZM43.85,4.294V3.138h1.42V4.294Zm0,4.335V7.472h1.42V8.628Zm0,4.335V11.807h1.42v1.156Zm0,4.335V16.142h1.42V17.3Zm3.064,2.339H44.888a.328.328,0,0,1-.328-.328V18.1h1.109a.4.4,0,0,0,.4-.4V15.743a.4.4,0,0,0-.4-.4H44.56V13.761h1.109a.4.4,0,0,0,.4-.4V11.408a.4.4,0,0,0-.4-.4H44.56V9.427h1.109a.4.4,0,0,0,.4-.4V7.073a.4.4,0,0,0-.4-.4H44.56V5.092h1.109a.4.4,0,0,0,.4-.4V2.738a.4.4,0,0,0-.4-.4H44.56V1.126A.328.328,0,0,1,44.888.8h2.026V19.637Zm12.338-.328a.328.328,0,0,1-.328.328H47.713V.8H58.925a.328.328,0,0,1,.328.328Z" transform="translate(0 0)" fill="#4a4b4d"/>
    <path id="Path_8586" data-name="Path 8586" d="M192.457,117.85a4.557,4.557,0,0,0-2.376,8.446h0a4.561,4.561,0,0,0,4.75,0l.006,0a4.557,4.557,0,0,0-2.382-8.443Zm-1.768,7.874v-2.158a.268.268,0,0,1,.268-.268h3a.268.268,0,0,1,.267.268v2.158a3.766,3.766,0,0,1-3.537,0Zm.595-4.4a1.174,1.174,0,1,1,1.18,1.178h-.012A1.177,1.177,0,0,1,191.283,121.323Zm3.74,3.832v-1.588a1.067,1.067,0,0,0-.986-1.063,1.972,1.972,0,1,0-3.161,0,1.067,1.067,0,0,0-.986,1.063v1.588a3.758,3.758,0,1,1,5.133,0Z" transform="translate(-139.067 -113.146)" fill="#4a4b4d"/>
    <path id="Path_8587" data-name="Path 8587" d="M196.615,376.148H188.3a.4.4,0,1,0,0,.8h8.315a.4.4,0,1,0,0-.8Z" transform="translate(-139.067 -361.135)" fill="#4a4b4d"/>
    <path id="Path_8588" data-name="Path 8588" d="M233.422,422.872H228.3a.4.4,0,0,0,0,.8h5.122a.4.4,0,0,0,0-.8Z" transform="translate(-177.47 -405.994)" fill="#4a4b4d"/>
  </g>
</svg>
