<svg id="_001-home" data-name="001-home" xmlns="http://www.w3.org/2000/svg" width="23.656" height="22.485" viewBox="0 0 23.656 22.485">
  <g id="Group_2268" data-name="Group 2268" transform="translate(0 0)">
    <g id="Group_2267" data-name="Group 2267">
      <path id="Path_4239" data-name="Path 4239" d="M23.259,22.665,12.645,12.994a1.208,1.208,0,0,0-1.634,0L.4,22.665a1.213,1.213,0,0,0,.817,2.11h1.7v9.69a.7.7,0,0,0,.7.7H9.423a.7.7,0,0,0,.7-.7V28.581h3.419v5.883a.7.7,0,0,0,.7.7h5.817a.7.7,0,0,0,.7-.7v-9.69h1.7a1.213,1.213,0,0,0,.817-2.11Z" transform="translate(0 -12.675)"/>
    </g>
  </g>
  <g id="Group_2270" data-name="Group 2270" transform="translate(15.893 1.389)">
    <g id="Group_2269" data-name="Group 2269">
      <path id="Path_4240" data-name="Path 4240" d="M348.645,42.73h-4.672l5.368,4.881V43.426A.7.7,0,0,0,348.645,42.73Z" transform="translate(-343.973 -42.73)"/>
    </g>
  </g>
</svg>
