<svg xmlns="http://www.w3.org/2000/svg" width="19.34" height="14.558" viewBox="0 0 19.34 14.558">
  <g id="list" transform="translate(0 -7.434)">
    <path id="Path_8597" data-name="Path 8597" d="M27.818,47.823H14.885a.965.965,0,1,1,0-1.93H27.817a.965.965,0,0,1,0,1.93Z" transform="translate(-9.442 -26.088)" fill="#4a4b4d"/>
    <path id="Path_8598" data-name="Path 8598" d="M27.818,28.992H14.885a.965.965,0,1,1,0-1.93H27.817a.965.965,0,0,1,0,1.93Z" transform="translate(-9.442 -13.314)" fill="#4a4b4d"/>
    <path id="Path_8599" data-name="Path 8599" d="M27.818,10.161H14.885a.965.965,0,1,1,0-1.93H27.817a.965.965,0,0,1,0,1.93Z" transform="translate(-9.442 -0.541)" fill="#4a4b4d"/>
    <circle id="Ellipse_3170" data-name="Ellipse 3170" cx="1.296" cy="1.296" r="1.296" transform="translate(0 7.434)" fill="#4a4b4d"/>
    <circle id="Ellipse_3171" data-name="Ellipse 3171" cx="1.296" cy="1.296" r="1.296" transform="translate(0 13.417)" fill="#4a4b4d"/>
    <circle id="Ellipse_3172" data-name="Ellipse 3172" cx="1.296" cy="1.296" r="1.296" transform="translate(0 19.4)" fill="#4a4b4d"/>
  </g>
</svg>
