<svg xmlns="http://www.w3.org/2000/svg" width="16.82" height="20.16" viewBox="0 0 16.82 20.16">
  <g id="user" transform="translate(0 0)">
    <path id="Path_8594" data-name="Path 8594" d="M91.887,9.711a4.7,4.7,0,0,0,3.433-1.423,4.7,4.7,0,0,0,1.422-3.433,4.7,4.7,0,0,0-1.423-3.433,4.855,4.855,0,0,0-6.866,0,4.7,4.7,0,0,0-1.423,3.433,4.7,4.7,0,0,0,1.423,3.433A4.7,4.7,0,0,0,91.887,9.711Zm-2.6-7.453a3.673,3.673,0,0,1,5.2,0,3.51,3.51,0,0,1,1.077,2.6,3.51,3.51,0,0,1-1.077,2.6,3.673,3.673,0,0,1-5.2,0,3.51,3.51,0,0,1-1.077-2.6,3.51,3.51,0,0,1,1.077-2.6Zm0,0" transform="translate(-83.605 0)" fill="#4a4b4d"/>
    <path id="Path_8595" data-name="Path 8595" d="M16.779,253.08a11.993,11.993,0,0,0-.163-1.274,10.035,10.035,0,0,0-.313-1.281,6.327,6.327,0,0,0-.527-1.194,4.5,4.5,0,0,0-.794-1.035,3.5,3.5,0,0,0-1.14-.717,3.942,3.942,0,0,0-1.456-.263,1.478,1.478,0,0,0-.789.335c-.237.154-.513.333-.822.53a4.711,4.711,0,0,1-1.064.469,4.131,4.131,0,0,1-2.6,0,4.7,4.7,0,0,1-1.063-.469c-.306-.2-.583-.374-.823-.53a1.476,1.476,0,0,0-.789-.335,3.937,3.937,0,0,0-1.456.264,3.5,3.5,0,0,0-1.141.717,4.5,4.5,0,0,0-.794,1.035,6.338,6.338,0,0,0-.526,1.195A10.061,10.061,0,0,0,.2,251.806a11.912,11.912,0,0,0-.163,1.274c-.027.385-.04.786-.04,1.19A3.348,3.348,0,0,0,.994,256.8a3.579,3.579,0,0,0,2.562.934h9.707a3.579,3.579,0,0,0,2.562-.934,3.346,3.346,0,0,0,.994-2.533c0-.406-.014-.807-.041-1.191Zm-1.768,2.868a2.41,2.41,0,0,1-1.747.609H3.556a2.41,2.41,0,0,1-1.747-.609,2.186,2.186,0,0,1-.627-1.677c0-.378.012-.751.037-1.109a10.744,10.744,0,0,1,.148-1.147,8.872,8.872,0,0,1,.275-1.129,5.16,5.16,0,0,1,.429-.971,3.338,3.338,0,0,1,.583-.765,2.322,2.322,0,0,1,.759-.472,2.718,2.718,0,0,1,.93-.18c.041.022.115.064.234.142.243.158.523.339.832.536a5.853,5.853,0,0,0,1.335.6,5.311,5.311,0,0,0,3.329,0,5.86,5.86,0,0,0,1.336-.6c.317-.2.589-.378.832-.536.119-.078.193-.12.234-.142a2.72,2.72,0,0,1,.931.18,2.325,2.325,0,0,1,.759.472,3.329,3.329,0,0,1,.583.765,5.143,5.143,0,0,1,.429.971,8.852,8.852,0,0,1,.276,1.129,10.834,10.834,0,0,1,.148,1.148h0c.025.357.038.73.038,1.108a2.186,2.186,0,0,1-.628,1.677Zm0,0" transform="translate(0 -237.578)" fill="#4a4b4d"/>
  </g>
</svg>
