<svg xmlns="http://www.w3.org/2000/svg" width="12.34" height="12.34" viewBox="0 0 12.34 12.34">
  <g id="pencil" transform="translate(0 -0.002)">
    <g id="Group_10586" data-name="Group 10586" transform="translate(0 0.002)">
      <path id="Path_8569" data-name="Path 8569" d="M12.011,2,10.328.32a1.147,1.147,0,0,0-1.587,0L1.2,7.934a.282.282,0,0,0-.071.121L.01,11.984a.281.281,0,0,0,.347.347l3.926-1.123a.282.282,0,0,0,.121-.071l7.607-7.546a1.123,1.123,0,0,0,0-1.588Zm-4.492.357L8.551,3.394l-5.39,5.39L2.775,8.01a.281.281,0,0,0-.251-.155H2.075ZM.688,11.653l.365-1.279.913.913Zm3.238-.925-1.342.383L1.23,9.757l.383-1.342H2.35l.483.967a.281.281,0,0,0,.125.125l.967.483v.737Zm.561-.461V9.818a.281.281,0,0,0-.155-.251L3.558,9.18l5.39-5.39L9.98,4.823ZM11.615,3.2,10.379,4.428,7.914,1.963,9.139.727a.574.574,0,0,1,.793,0L11.614,2.41a.561.561,0,0,1,0,.792Z" transform="translate(0 -0.002)" fill="#0b4328"/>
    </g>
  </g>
</svg>
